<?xml version="1.0" encoding="UTF-8"?>
<svg width="48px" height="48px" viewBox="0 0 48 48" version="1.1" xmlns="http://www.w3.org/2000/svg" xmlns:xlink="http://www.w3.org/1999/xlink">
    <!-- Generator: Sketch 53.2 (72643) - https://sketchapp.com -->
    <title>Fusion_Icon_Only</title>
    <desc>Created with Sketch.</desc>
    <g id="Fusion_Icon_Only" stroke="none" stroke-width="1" fill="none" fill-rule="evenodd">
        <path d="M23.0445515,15.5959732 C15.6502107,26.9235347 11.1083685,42.6547204 9.3359422,48 C8.33895244,37.9187472 13.6008429,24.1816555 17.4503311,16.066801 C15.6779049,16.1498882 6.23419627,16.8145862 1,22.2152573 C1,22.2152573 3.82480433,13.5464878 20.1366647,10.9153916 L20.192053,10.8046086 C32.9590608,-7.83463075 42.5412402,3.2990605 42.5412402,3.2990605 C36.7254666,2.32970928 31.6574353,5.23776296 27.3371463,9.9737361 C29.4419025,9.89064886 43.0674293,9.72447436 47,20.4981209 C47,20.4981209 39.1071644,14.848188 23.0445515,15.5959732 Z M32,29 C28.6915888,29 26,31.6915888 26,35 C26,38.3084112 28.6915888,41 32,41 C35.3084112,41 38,38.3084112 38,35 L38,35 C38,31.6635514 35.3084112,29 32,29 Z" id="Shape" fill="#062144" fill-rule="nonzero"></path>
    </g>
</svg>