<?xml version="1.0" encoding="UTF-8"?>
<svg width="306px" height="96px" viewBox="0 0 306 96" version="1.1" xmlns="http://www.w3.org/2000/svg" xmlns:xlink="http://www.w3.org/1999/xlink">
    <!-- Generator: Sketch 53.2 (72643) - https://sketchapp.com -->
    <title>Fusion_Dark</title>
    <desc>Created with Sketch.</desc>
    <g id="Fusion_Dark" stroke="none" stroke-width="1" fill="none" fill-rule="evenodd">
        <g id="Group" transform="translate(12.000000, 12.000000)" fill="#FFFFFF">
            <path d="M99.4067669,30.864927 L89.9784962,30.864927 C89.6915489,30.864927 89.4865865,31.070146 89.4865865,31.3574525 L89.4865865,36.4058381 C89.4865865,36.6931446 89.6915489,36.8983636 89.9784962,36.8983636 L98.4229474,36.8983636 C99.0378346,36.8983636 99.5707368,37.390889 99.5707368,38.0475896 L99.5707368,43.4243255 C99.5707368,44.0399823 99.0788271,44.5735515 98.4229474,44.5735515 L89.9784962,44.5735515 C89.6915489,44.5735515 89.4865865,44.7787705 89.4865865,45.066077 L89.4865865,57.4613003 C89.4865865,58.0769571 88.9946767,58.6105263 88.338797,58.6105263 L81.4110677,58.6105263 C80.7961805,58.6105263 80.2632782,58.1180009 80.2632782,57.4613003 L80.2632782,24.3389651 C80.2632782,23.7233083 80.755188,23.1897391 81.4110677,23.1897391 L99.3657744,23.1897391 C99.9806617,23.1897391 100.513564,23.6822645 100.513564,24.3389651 L100.513564,29.715701 C100.554556,30.3724016 100.062647,30.864927 99.4067669,30.864927 Z" id="Path"></path>
            <path d="M139.005504,43.5885007 C139.046496,45.435471 138.841534,47.2413976 138.472602,49.0473242 C137.939699,51.38682 136.62794,53.5210969 134.619308,55.4501548 C131.749835,58.1590447 127.896541,59.5134896 123.100421,59.5134896 C118.222316,59.5134896 114.410015,58.1180009 111.663519,55.3680672 C110.187789,53.8494471 109.162977,51.961433 108.671068,49.9092437 C108.261143,47.8570544 108.05618,45.7227775 108.097173,43.6295444 L108.097173,24.3389651 C108.097173,23.7233083 108.589083,23.1897391 109.244962,23.1897391 L109.244962,23.1897391 L116.172692,23.1897391 C116.787579,23.1897391 117.320481,23.6822645 117.320481,24.3389651 L117.320481,24.3389651 L117.320481,42.3571871 C117.320481,43.916851 117.361474,45.066077 117.402466,45.8048651 C117.566436,48.2264485 118.673233,49.8681999 120.681865,50.8532508 C121.542707,51.2636886 122.485534,51.4689076 123.428361,51.4278638 C125.682947,51.4278638 127.363639,50.6480318 128.511429,49.088368 C129.372271,47.939142 129.782195,45.6817337 129.782195,42.3571871 L129.782195,24.3389651 C129.782195,23.7233083 130.274105,23.1897391 130.929985,23.1897391 C130.929985,23.1897391 130.929985,23.1897391 130.929985,23.1897391 L137.816722,23.1897391 C138.431609,23.1897391 138.964511,23.6822645 138.964511,24.3389651 L138.964511,24.3389651 L139.005504,43.5885007 Z" id="Path"></path>
            <path d="M173.070256,46.8720035 C173.070256,52.8643963 170.446737,56.7635559 165.199699,58.5694825 C163.314045,59.2261831 161.305414,59.5545334 159.296782,59.5134896 C155.238526,59.5134896 151.262256,58.3232198 147.85988,56.0658116 C147.36797,55.7374613 147.163008,55.0807607 147.449955,54.5471915 L150.237444,49.2935869 C150.524391,48.7189739 151.221263,48.513755 151.754165,48.8010615 C151.795158,48.8421053 151.877143,48.883149 151.918135,48.9241928 C154.336692,50.8532508 156.673263,51.7972579 159.009835,51.7972579 C160.075639,51.8383016 161.141444,51.5509951 162.043278,50.9763821 C162.986105,50.4017691 163.519008,49.3756745 163.478015,48.308536 C163.478015,47.2413976 162.945113,46.3794781 161.879308,45.6817337 C161.100451,45.1481645 159.747699,44.6145953 157.862045,44.0810261 C155.566466,43.4243255 154.131729,42.9318001 153.557835,42.6855374 C152.696992,42.3161433 151.877143,41.8646617 151.180271,41.2900487 C149.335609,39.7303848 148.392782,37.390889 148.392782,34.2305175 C148.392782,30.9470146 149.376602,28.2381247 151.303248,26.0628041 C153.598827,23.5180893 156.632271,22.245732 160.444571,22.245732 C163.969925,22.245732 167.413293,23.0666077 170.610707,24.5852278 C171.184602,24.8725343 171.430556,25.5292349 171.184602,26.1038479 C171.184602,26.1038479 171.184602,26.1448916 171.143609,26.1448916 L168.561083,31.1932773 C168.274135,31.7678903 167.577263,31.9731092 167.003368,31.6858027 C166.962376,31.6858027 166.921383,31.644759 166.921383,31.644759 C165.445654,30.6186643 163.682977,30.0440513 161.879308,30.0030075 C160.936481,30.0030075 160.034647,30.290314 159.214797,30.7828395 C158.394947,31.2343211 157.903038,32.1372844 157.903038,33.0812915 C157.903038,34.0252985 158.476932,34.8051305 159.624722,35.5028748 C160.157624,35.8312251 161.715338,36.3647943 164.297865,37.1035825 C167.536271,38.0475896 169.872842,39.4020345 171.266586,41.1669173 C172.496361,42.6444936 173.070256,44.5325077 173.070256,46.8720035 Z" id="Path"></path>
            <rect id="Rectangle" x="180.981805" y="23.1897391" width="9.22330827" height="35.4207873"></rect>
            <path d="M237.305474,41.0027421 C237.346466,45.6817337 235.624782,50.1965502 232.509353,53.6442282 C228.861023,57.7896506 223.941925,59.8418399 217.711068,59.8418399 C211.480211,59.8418399 206.561113,57.7896506 202.953774,53.6442282 C199.838346,50.1965502 198.116662,45.64069 198.157654,41.0027421 C198.198647,38.7042901 198.608571,36.4058381 199.469414,34.2305175 C200.248271,32.0551968 201.437053,30.0440513 202.912782,28.3202123 C206.561113,24.1747899 211.480211,22.1226006 217.711068,22.1226006 C223.941925,22.1226006 228.861023,24.1747899 232.509353,28.3202123 C235.665774,31.8089341 237.387459,36.3237506 237.305474,41.0027421 Z M227.795218,41.0027421 C227.836211,38.6222026 226.975368,36.3237506 225.417654,34.517824 C221.810316,30.290314 215.456481,29.7977886 211.234256,33.4096418 C209.020662,35.2976559 207.708902,38.0886333 207.708902,41.0027421 C207.708902,43.3832817 208.528752,45.64069 210.086466,47.4055728 C211.97212,49.7040248 214.759609,50.9763821 217.711068,50.9353383 C223.20406,50.9763821 227.713233,46.584697 227.754226,41.0848297 C227.795218,41.0437859 227.795218,41.0437859 227.795218,41.0027421 Z" id="Shape" fill-rule="nonzero"></path>
            <path d="M279.445744,58.6105263 L271.94412,58.6105263 C271.575188,58.6105263 271.247248,58.4463512 271.042286,58.1590447 L255.342165,38.0475896 C255.178195,37.8423706 254.850256,37.8013268 254.645293,37.965502 C254.522316,38.0475896 254.440331,38.2117647 254.440331,38.3348961 L254.440331,58.5694825 L246.364812,58.5694825 C245.749925,58.5694825 245.217023,58.0769571 245.217023,57.4202565 L245.217023,24.3389651 C245.217023,23.7233083 245.708932,23.1897391 246.364812,23.1897391 L253.866436,23.1897391 C254.235368,23.1897391 254.563308,23.3539142 254.768271,23.6412207 L270.468391,43.7526758 C270.632361,43.9578947 270.960301,43.9989385 271.165263,43.8347634 C271.288241,43.7526758 271.370226,43.5885007 271.370226,43.4243255 L271.370226,24.3389651 C271.370226,23.7233083 271.862135,23.1897391 272.518015,23.1897391 L279.445744,23.1897391 C280.060632,23.1897391 280.593534,23.6822645 280.593534,24.3389651 L280.593534,57.4613003 C280.593534,58.0769571 280.060632,58.6105263 279.445744,58.6105263 Z" id="Path"></path>
            <path d="M32.630015,23.5180893 C21.6850226,40.3049978 14.9622556,63.6178682 12.3387368,71.5393189 C10.8630075,56.5993808 18.6515789,36.241663 24.3495338,24.2158337 C21.726015,24.3389651 7.74757895,25.3240159 0,33.3275542 C0,33.3275542 4.18123308,20.4808492 28.3258045,16.5816895 L28.4077895,16.4175144 C47.3053233,-11.2049536 61.4887218,5.29464839 61.4887218,5.29464839 C52.8803008,3.85811588 45.3786767,8.1677134 38.9838496,15.1862008 C42.0992782,15.0630694 62.2675789,14.8168067 68.0885113,30.7828395 C68.0885113,30.7828395 56.4056541,22.4099071 32.630015,23.5180893 Z M46.2805113,42.7676249 C41.4433985,42.7676249 37.5081203,46.7078284 37.5081203,51.5509951 C37.5081203,56.3941619 41.4433985,60.3343653 46.2805113,60.3343653 C51.1176241,60.3343653 55.0529023,56.3941619 55.0529023,51.5509951 L55.0529023,51.5509951 C55.0529023,46.6667846 51.1176241,42.7676249 46.2805113,42.7676249 Z" id="Shape" fill-rule="nonzero"></path>
        </g>
    </g>
</svg>